Coordinates
version=1
nRows=6
nColumns=63
inDegrees=yes

Units are S.I. units (second, meters, Newtons, ...)
If the header above contains a line with 'inDegrees', this indicates whether rotational values are in degrees (yes) or radians (no).

endheader
time	pelvis_tilt	pelvis_list	pelvis_rotation	pelvis_tx	pelvis_ty	pelvis_tz	hip_flexion_r	hip_adduction_r	hip_rotation_r	knee_angle_r	knee_angle_r_beta	ankle_angle_r	subtalar_angle_r	mtp_angle_r	hip_flexion_l	hip_adduction_l	hip_rotation_l	knee_angle_l	knee_angle_l_beta	ankle_angle_l	subtalar_angle_l	mtp_angle_l	L5_S1_Flex_Ext	L5_S1_Lat_Bending	L5_S1_axial_rotation	L4_L5_Flex_Ext	L4_L5_Lat_Bending	L4_L5_axial_rotation	L3_L4_Flex_Ext	L3_L4_Lat_Bending	L3_L4_axial_rotation	L2_L3_Flex_Ext	L2_L3_Lat_Bending	L2_L3_axial_rotation	L1_L2_Flex_Ext	L1_L2_Lat_Bending	L1_L2_axial_rotation	L1_T12_Flex_Ext	L1_T12_Lat_Bending	L1_T12_axial_rotation	Abs_r3	Abs_r2	Abs_r1	Abs_t1	Abs_t2	neck_flexion	neck_bending	neck_rotation	arm_flex_r	arm_add_r	arm_rot_r	elbow_flex_r	pro_sup_r	wrist_flex_r	wrist_dev_r	arm_flex_l	arm_add_l	arm_rot_l	elbow_flex_l	pro_sup_l	wrist_flex_l	wrist_dev_l
      2.07017544	     -0.64485292	    -16.99228981	     96.11817424	      0.32156338	      1.08595494	      0.37167015	     17.36240096	     -8.75996214	    -12.86304122	     19.45199966	      0.33950144	     38.06725448	     14.09959210	      0.00000000	     14.71536732	      5.72283643	    -14.01387851	     14.68357588	      0.25627675	     26.45572897	     14.86353576	      0.00000000	     -0.25257364	      0.56098006	     -1.48995750	     -0.46905451	      0.74610348	     -1.58307985	     -0.41495324	      1.36396692	     -1.58307985	     -0.28866641	      1.36396692	     -1.30371281	     -0.23453988	      1.14395054	     -1.21059047	     -0.14432058	      0.86895811	     -1.11746813	     -1.80410826	      6.34591864	     -8.28669664	      0.00000000	      0.00000000	     16.78087588	      5.43113997	     15.42727226	     54.69480767	    -46.47331779	     -4.39467184	    149.85144278	     57.42821186	      7.76236584	     -9.48067558	     -3.16303263	    -12.48557806	     34.02645547	     57.11021037	     89.12442580	    -17.40072452	     -1.95059317
      2.08771930	     -0.04705340	    -16.73526295	     97.05901992	      0.32012763	      1.08645662	      0.37200888	     16.81018066	     -8.35079108	    -13.87527911	     19.12485904	      0.33379176	     37.81985352	     14.21564252	      0.00000000	     14.61732165	      5.29456574	    -13.12633259	     14.91283815	      0.26027813	     26.58880414	     14.89073650	      0.00000000	     -0.29410670	      0.67187560	     -1.66195077	     -0.54618555	      0.89359455	     -1.76582269	     -0.48318790	      1.63359834	     -1.76582269	     -0.33613455	      1.63359834	     -1.45420692	     -0.27310748	      1.37008873	     -1.35033500	     -0.16805257	      1.04073531	     -1.24646308	     -2.10077474	      7.60039120	     -9.24327160	      0.00000000	      0.00000000	     16.51545102	      4.78818415	     17.70487403	     56.30654632	    -46.66921116	     -2.86297630	    149.84542098	     58.66151733	      6.66949884	     -8.82861062	     -2.84688729	    -11.98721020	     33.80159522	     57.15235243	     89.13735713	    -15.46711536	      0.19868108
      2.10526316	      0.00346490	    -16.61635615	     97.17104895	      0.32027520	      1.08662760	      0.37203530	     16.63793461	     -8.29914105	    -14.04606203	     19.15834991	      0.33437629	     37.69047836	     14.23035523	      0.00000000	     14.50921279	      5.23279991	    -13.02821411	     14.94925828	      0.26091378	     26.57875801	     14.86526970	      0.00000000	     -0.31203190	      0.68858849	     -1.66873168	     -0.57947444	      0.91582270	     -1.77302741	     -0.51263721	      1.67423406	     -1.77302741	     -0.35662126	      1.67423406	     -1.46014022	     -0.28975282	      1.40416965	     -1.35584449	     -0.17829503	      1.06662357	     -1.25154876	     -2.22881267	      7.78945075	     -9.28098498	      0.00000000	      0.00000000	     16.20073953	      4.89945092	     18.16550002	     56.48030284	    -46.76300469	     -2.80594361	    149.84847587	     61.55968922	      5.66637146	     -9.33500961	     -2.45178284	    -12.00166125	     34.23463884	     57.13073676	     89.13029604	    -14.53747697	      1.11465484
      2.12280702	      0.01372011	    -16.54538931	     97.18835689	      0.32037835	      1.08666585	      0.37196191	     16.52097576	     -8.27808087	    -14.08164779	     19.22581022	      0.33555369	     37.54247014	     14.07256031	      0.00000000	     14.42970313	      5.20103665	    -13.05534080	     14.96568854	      0.26120054	     26.60579323	     14.92453008	      0.00000000	     -0.32340924	      0.69949103	     -1.65088534	     -0.60060331	      0.93032308	     -1.75406568	     -0.53132905	      1.70074250	     -1.75406568	     -0.36962443	      1.70074250	     -1.44452467	     -0.30031782	      1.42640212	     -1.34134434	     -0.18479604	      1.08351161	     -1.23816401	     -2.31007990	      7.91278249	     -9.18172901	      0.00000000	      0.00000000	     15.87087952	      5.12665949	     18.54981873	     56.55118626	    -46.90452019	     -2.82880617	    149.85027684	     62.55099454	      5.43847442	     -9.23391967	     -1.92695503	    -12.12288550	     35.17763125	     56.95255675	     89.12971171	    -14.18862475	      1.52366922
      2.14035088	     -0.02154624	    -16.51350416	     97.14540548	      0.32064168	      1.08665106	      0.37203203	     16.47556067	     -8.27506991	    -13.88246857	     19.31192074	      0.33705660	     37.44572962	     13.68807447	      0.00000000	     14.40870167	      5.19758566	    -13.18584235	     14.99508283	      0.26171357	     26.65071962	     15.00974013	      0.00000000	     -0.33089878	      0.69765019	     -1.61301234	     -0.61451212	      0.92787476	     -1.71382561	     -0.54363360	      1.69626668	     -1.71382561	     -0.37818421	      1.69626668	     -1.41138580	     -0.30727260	      1.42264827	     -1.31057253	     -0.18907556	      1.08066015	     -1.20975925	     -2.36357687	      7.89195851	     -8.97109073	      0.00000000	      0.00000000	     15.64806386	      5.30690371	     18.48322086	     56.29109756	    -47.06708988	     -3.45636285	    149.85286318	     70.19845721	      1.95061278	    -10.62296175	     -1.49956630	    -12.26493664	     35.83841543	     56.99837988	     89.15430041	    -13.55126140	      2.77388851
      2.15789474	     -0.00092528	    -16.50857599	     97.08875726	      0.32069765	      1.08654255	      0.37224410	     16.49774324	     -8.26317335	    -13.81568190	     19.43078696	      0.33913121	     37.41149601	     13.55621153	      0.00000000	     14.45212258	      5.16313198	    -13.15299449	     15.02935255	      0.26231169	     26.77572892	     14.95987513	      0.00000000	     -0.33567285	      0.70395386	     -1.55495571	     -0.62337805	      0.93625863	     -1.65214044	     -0.55147693	      1.71159341	     -1.65214044	     -0.38364050	      1.71159341	     -1.36058624	     -0.31170581	      1.43550271	     -1.26340151	     -0.19180347	      1.09042453	     -1.16621678	     -2.39767760	      7.96326683	     -8.64819716	      0.00000000	      0.00000000	     15.53559277	      5.40189742	     18.40337405	     56.19068744	    -47.34882313	     -3.92609036	    149.85366438	     71.96407368	      1.13112966	     -9.94239989	     -1.00646002	    -12.37012641	     36.72724983	     56.95211845	     89.17259854	    -13.23853502	      3.74631941
